<svg xmlns="http://www.w3.org/2000/svg" viewBox="0 0 160 256" shape-rendering="crispEdges">
  <rect width="160" height="256" fill="#08224b"/>
  <g transform="translate(32 24)">
    <rect x="28" y="16" width="40" height="40" rx="8" fill="#f6c4a4"/>
    <rect x="24" y="44" width="48" height="60" rx="10" fill="#fbe1c9"/>
    <rect x="18" y="96" width="60" height="100" rx="18" fill="#1f1b2d"/>
    <rect x="28" y="196" width="18" height="40" fill="#f6c4a4"/>
    <rect x="54" y="196" width="18" height="40" fill="#f6c4a4"/>
    <rect x="24" y="236" width="26" height="8" rx="3" fill="#12182a"/>
    <rect x="54" y="236" width="26" height="8" rx="3" fill="#12182a"/>
    <rect x="18" y="94" width="60" height="18" fill="#17131e"/>
    <rect x="26" y="20" width="44" height="8" rx="4" fill="#ab5a2e"/>
    <rect x="24" y="24" width="48" height="28" rx="12" fill="#cf7a3f"/>
    <rect x="34" y="32" width="12" height="12" rx="4" fill="#f6c4a4"/>
    <rect x="58" y="32" width="12" height="12" rx="4" fill="#f6c4a4"/>
    <rect x="40" y="48" width="20" height="4" rx="2" fill="#d66d55"/>
    <rect x="44" y="62" width="12" height="6" rx="3" fill="#c0523c"/>
    <rect x="28" y="52" width="8" height="8" rx="4" fill="#12182a"/>
    <rect x="68" y="52" width="8" height="8" rx="4" fill="#12182a"/>
    <rect x="10" y="84" width="76" height="20" rx="10" fill="#101729"/>
    <rect x="-2" y="100" width="12" height="70" rx="6" fill="#2d1f16"/>
    <rect x="86" y="100" width="12" height="70" rx="6" fill="#2d1f16"/>
    <circle cx="30" cy="120" r="6" fill="#d9a179"/>
    <circle cx="74" cy="120" r="6" fill="#d9a179"/>
    <rect x="36" y="138" width="32" height="42" rx="12" fill="#12182a"/>
    <rect x="38" y="142" width="28" height="20" rx="8" fill="#1b2136"/>
    <rect x="38" y="168" width="28" height="18" rx="6" fill="#1b2136"/>
    <rect x="34" y="122" width="36" height="12" rx="6" fill="#12182a"/>
    <rect x="30" y="12" width="40" height="18" rx="9" fill="#d58045"/>
  </g>
</svg>
