<svg xmlns="http://www.w3.org/2000/svg" viewBox="0 0 320 480" role="img" aria-labelledby="title desc">
  <title>Retrato ilustrado del equipo</title>
  <desc>Ilustración pixelada de un coach con camisa a cuadros y fondo azul.</desc>
  <defs>
    <linearGradient id="bg" x1="0" x2="0" y1="0" y2="1">
      <stop offset="0%" stop-color="#0f3564" />
      <stop offset="100%" stop-color="#07254a" />
    </linearGradient>
  </defs>
  <rect width="320" height="480" fill="url(#bg)" />
  <g transform="translate(40 40) scale(1)">
    <rect x="90" y="0" width="60" height="70" rx="12" fill="#f5c9a1" />
    <rect x="90" y="10" width="60" height="15" fill="#2b1a17" />
    <rect x="85" y="15" width="70" height="15" fill="#2b1a17" />
    <rect x="95" y="30" width="50" height="15" fill="#f5c9a1" />
    <rect x="100" y="35" width="10" height="10" fill="#05080e" rx="2" />
    <rect x="140" y="35" width="10" height="10" fill="#05080e" rx="2" />
    <rect x="118" y="55" width="14" height="6" fill="#2b1a17" rx="2" />
    <rect x="86" y="65" width="68" height="20" rx="10" fill="#2b1a17" />
    <rect x="70" y="85" width="100" height="15" fill="#551f16" />
    <rect x="60" y="95" width="120" height="140" rx="18" fill="#7b1f19" />
    <rect x="60" y="115" width="120" height="16" fill="#b8534c" />
    <rect x="60" y="145" width="120" height="16" fill="#b8534c" />
    <rect x="60" y="175" width="120" height="16" fill="#b8534c" />
    <rect x="40" y="110" width="40" height="110" rx="12" fill="#f5c9a1" />
    <rect x="160" y="110" width="40" height="110" rx="12" fill="#f5c9a1" />
    <rect x="20" y="210" width="60" height="30" rx="12" fill="#551f16" />
    <rect x="180" y="210" width="60" height="30" rx="12" fill="#551f16" />
    <rect x="70" y="235" width="100" height="90" rx="18" fill="#1f4064" />
    <rect x="90" y="325" width="25" height="80" rx="10" fill="#0d1b2b" />
    <rect x="125" y="325" width="25" height="80" rx="10" fill="#0d1b2b" />
    <rect x="80" y="400" width="40" height="15" rx="6" fill="#f0f3ff" />
    <rect x="120" y="400" width="40" height="15" rx="6" fill="#f0f3ff" />
  </g>
</svg>
