<svg xmlns="http://www.w3.org/2000/svg" viewBox="0 0 160 256" shape-rendering="crispEdges">
  <rect width="160" height="256" fill="#08224b"/>
  <g transform="translate(30 22)">
    <rect x="30" y="16" width="40" height="40" rx="8" fill="#f1c29a"/>
    <rect x="24" y="20" width="52" height="52" rx="20" fill="#1f2937"/>
    <rect x="26" y="24" width="48" height="28" rx="12" fill="#2d3748"/>
    <rect x="36" y="32" width="12" height="12" rx="4" fill="#f1c29a"/>
    <rect x="56" y="32" width="12" height="12" rx="4" fill="#f1c29a"/>
    <rect x="42" y="48" width="16" height="6" rx="3" fill="#d77b5a"/>
    <rect x="44" y="62" width="12" height="6" rx="3" fill="#c66849"/>
    <rect x="32" y="52" width="8" height="8" rx="4" fill="#141820"/>
    <rect x="64" y="52" width="8" height="8" rx="4" fill="#141820"/>
    <rect x="20" y="80" width="60" height="90" rx="18" fill="#6b1d24"/>
    <rect x="12" y="96" width="12" height="70" rx="6" fill="#3d1015"/>
    <rect x="80" y="96" width="12" height="70" rx="6" fill="#3d1015"/>
    <rect x="18" y="86" width="64" height="24" rx="10" fill="#541017"/>
    <rect x="36" y="98" width="32" height="48" rx="12" fill="#f1c29a"/>
    <rect x="38" y="102" width="28" height="20" rx="8" fill="#d8906b"/>
    <rect x="38" y="128" width="28" height="28" rx="8" fill="#d8906b"/>
    <rect x="32" y="188" width="18" height="40" fill="#f1c29a"/>
    <rect x="60" y="188" width="18" height="40" fill="#f1c29a"/>
    <rect x="28" y="228" width="26" height="8" rx="3" fill="#111722"/>
    <rect x="58" y="228" width="26" height="8" rx="3" fill="#111722"/>
    <rect x="22" y="172" width="60" height="20" rx="8" fill="#08224b"/>
    <rect x="30" y="12" width="40" height="14" rx="7" fill="#2d3748"/>
  </g>
</svg>
