<svg xmlns="http://www.w3.org/2000/svg" viewBox="0 0 200 320" shape-rendering="crispEdges">
  <rect width="200" height="320" fill="#0b3a6b" />
  <!-- Hair -->
  <rect x="68" y="36" width="64" height="12" fill="#2b1812" />
  <rect x="60" y="48" width="80" height="20" fill="#2b1812" />
  <rect x="64" y="68" width="72" height="10" fill="#2b1812" />
  <!-- Face -->
  <rect x="72" y="68" width="56" height="64" fill="#f0c7a9" />
  <!-- Beard -->
  <rect x="68" y="104" width="64" height="32" fill="#2f1b16" />
  <rect x="64" y="112" width="8" height="20" fill="#2f1b16" />
  <rect x="136" y="112" width="8" height="20" fill="#2f1b16" />
  <!-- Eyes -->
  <rect x="84" y="96" width="12" height="8" fill="#1d2938" />
  <rect x="108" y="96" width="12" height="8" fill="#1d2938" />
  <!-- Nose -->
  <rect x="96" y="104" width="8" height="16" fill="#e0b499" />
  <!-- Smile -->
  <rect x="92" y="124" width="24" height="6" fill="#2f1b16" />
  <!-- Neck -->
  <rect x="92" y="132" width="20" height="20" fill="#f0c7a9" />
  <!-- Shoulders -->
  <rect x="36" y="152" width="128" height="48" fill="#8b2f2f" />
  <rect x="36" y="152" width="16" height="48" fill="#641b1d" />
  <rect x="148" y="152" width="16" height="48" fill="#641b1d" />
  <!-- Arms -->
  <rect x="32" y="200" width="28" height="96" fill="#f0c7a9" />
  <rect x="140" y="200" width="28" height="96" fill="#f0c7a9" />
  <rect x="32" y="200" width="28" height="20" fill="#8b2f2f" />
  <rect x="140" y="200" width="28" height="20" fill="#8b2f2f" />
  <!-- Torso -->
  <rect x="60" y="200" width="80" height="96" fill="#8b2f2f" />
  <rect x="60" y="236" width="80" height="8" fill="#c97368" />
  <rect x="96" y="200" width="12" height="96" fill="#d36b63" />
  <!-- Plaid lines -->
  <rect x="72" y="200" width="6" height="96" fill="#d38a7f" opacity="0.8" />
  <rect x="120" y="200" width="6" height="96" fill="#d38a7f" opacity="0.8" />
  <rect x="60" y="216" width="80" height="5" fill="#d38a7f" opacity="0.7" />
  <rect x="60" y="248" width="80" height="5" fill="#d38a7f" opacity="0.7" />
  <rect x="60" y="280" width="80" height="5" fill="#d38a7f" opacity="0.7" />
  <!-- Pants -->
  <rect x="60" y="296" width="80" height="80" fill="#1f3d5c" />
  <rect x="60" y="296" width="24" height="80" fill="#182e4b" />
  <rect x="116" y="296" width="24" height="80" fill="#15273f" />
  <!-- Shoes -->
  <rect x="60" y="360" width="36" height="16" fill="#0f1829" />
  <rect x="104" y="360" width="36" height="16" fill="#0f1829" />
</svg>
